<svg xmlns="http://www.w3.org/2000/svg" xmlns:xlink="http://www.w3.org/1999/xlink" version="1.1" x="0px" y="0px" viewBox="0 0 100 125" style="enable-background:new 0 0 100 100;" xml:space="preserve"><path d="M90.6,34.3C84.7,11.6,61.5-1.9,38.9,4.1C16.3,10,2.8,33.2,8.7,55.8c2.8,10.7,9.5,19.4,18.2,24.9l-11.1,17  L60.4,86C83.1,80,96.6,56.9,90.6,34.3z M71.5,32.3c3.2,0,5.8,2.6,5.8,5.8c0,3.2-2.6,5.8-5.8,5.8c-3.2,0-5.8-2.6-5.8-5.8  C65.6,34.9,68.2,32.3,71.5,32.3z M50.7,28.1c4.1,0,7.4,3.3,7.4,7.4c0,4.1-3.3,7.4-7.4,7.4s-7.4-3.3-7.4-7.4  C43.3,31.4,46.7,28.1,50.7,28.1z M30,32.3c3.2,0,5.8,2.6,5.8,5.8c0,3.2-2.6,5.8-5.8,5.8s-5.8-2.6-5.8-5.8  C24.2,34.9,26.8,32.3,30,32.3z M34.4,51.6v4.3H19.5v-4.7c0-2.8,2.3-5.1,5.1-5.1h10.8c0.6,0,1.2,0.1,1.8,0.3  C35.5,47.6,34.4,49.5,34.4,51.6z M64.1,58H37.4v-6c0-3.6,2.9-6.5,6.5-6.5h13.7c3.6,0,6.5,2.9,6.5,6.5V58z M82,55.9H67.3v-4.3  c0-2.1-1.1-4-2.8-5.2c0.5-0.2,1-0.3,1.6-0.3h10.8c2.8,0,5.1,2.2,5.1,5.1V55.9z"/><text x="0" y="115" fill="#000000" font-size="5px" font-weight="bold" font-family="'Helvetica Neue', Helvetica, Arial-Unicode, Arial, Sans-serif">Created by Aneeque Ahmed</text><text x="0" y="120" fill="#000000" font-size="5px" font-weight="bold" font-family="'Helvetica Neue', Helvetica, Arial-Unicode, Arial, Sans-serif">from the Noun Project</text></svg>