<svg viewBox="-5 -10 117.2972972972973 113.67" version="1.1" xmlns="http://www.w3.org/2000/svg" style="max-height: 500px" width="117.2972972972973" height="113.67">
 <path fill-rule="evenodd" d="m30.516 15.918h-9.4453c-0.86328 0-1.5625 0.69922-1.5625 1.5625s0.69922 1.5625 1.5625 1.5625h9.4453c0.86328 0 1.5664-0.69922 1.5664-1.5625s-0.70312-1.5625-1.5664-1.5625z"/>
 <path fill-rule="evenodd" d="m30.516 22.219h-18.895c-0.86328 0-1.5625 0.69922-1.5625 1.5625 0 0.85938 0.69922 1.5586 1.5625 1.5586h18.895c0.86719 0 1.5664-0.69922 1.5664-1.5586 0-0.86328-0.69922-1.5625-1.5664-1.5625z"/>
 <path fill-rule="evenodd" d="m14.77 15.918h-3.1484c-0.86328 0-1.5625 0.69922-1.5625 1.5625s0.69922 1.5625 1.5625 1.5625h3.1484c0.86328 0 1.5625-0.69922 1.5625-1.5625s-0.69922-1.5625-1.5625-1.5625z"/>
 <path fill-rule="evenodd" d="m52.496 8.7656c-2.418 0-4.3828 1.9648-4.3828 4.3867 0 2.418 1.9648 4.3828 4.3828 4.3828 2.4219 0 4.3867-1.9648 4.3867-4.3828 0-2.4219-1.9648-4.3867-4.3867-4.3867zm0 3.1289c0.69531 0 1.2578 0.5625 1.2578 1.2578 0 0.69141-0.5625 1.2578-1.2578 1.2578-0.69141 0-1.2578-0.56641-1.2578-1.2578 0-0.69531 0.56641-1.2578 1.2578-1.2578z"/>
 <path fill-rule="evenodd" d="m44.227 19.07h-5.8477v-7.125c0-2.5898-2.1016-4.6875-4.6875-4.6875h-25.246c-2.5859 0-4.6875 2.0977-4.6875 4.6875v17.688c0 1.2383 0.49609 2.4336 1.375 3.3125 0.87891 0.87891 2.0742 1.375 3.3125 1.375h11.062v29.359h-11.062c-2.5859 0-4.6875 2.1016-4.6875 4.6875v5.2969c0 2.5938 2.1016 4.6875 4.6875 4.6875h11.062v2.1406c0 2.5859 2.0977 4.6875 4.6875 4.6875h31.738l-1.0039 1.6406c-1.4453 2.3711-0.83594 5.4531 1.4023 7.0977l0.003907 0.003906c1.2656 0.92969 2.8594 1.2852 4.4023 0.98047 1.5352-0.30469 2.8789-1.2422 3.6953-2.582l6.1523-10.121 4.293 2.9297s2.4805 8.2617 2.4805 8.2617c0.71875 2.3984 3.1328 3.8672 5.5938 3.3984h0.003906c1.4883-0.28125 2.7812-1.1875 3.5508-2.4883 0.76953-1.3008 0.94531-2.8711 0.48047-4.3086-1.0156-3.1328-2.3477-7.2383-2.9062-8.9688-0.26172-0.80469-0.74219-1.5273-1.3828-2.0859l-8.1055-7.0547 1.7969-5.168 8.9766-0.40234c0.16797-0.007812 0.32812-0.023438 0.48828-0.046875l7.3086 28.277c0.21875 0.83594 1.0664 1.3398 1.9062 1.1211 0.83203-0.21484 1.3359-1.0664 1.1211-1.9062l-7.5-29.016c0.80078-0.89063 1.2695-2.0859 1.2188-3.3789v-0.003906c-0.10547-2.4844-2.1211-4.4609-4.6055-4.5078l-7.1523-0.14062-4.4219-8.8828c-0.14453-0.28906-0.3125-0.55469-0.50391-0.80469 2.5586-1.5 4.2773-4.2695 4.2773-7.4414 0-3.2578-1.8125-6.0938-4.4844-7.5586v-8.2656c0-2.5938-2.0977-4.6875-4.6875-4.6875h-7.5703c1.0664-2.3125 1.7617-4.457 1.7617-5.9219 0-5.5312-4.4922-10.023-10.027-10.023s-10.023 4.4922-10.023 10.023c0 1.4648 0.69141 3.6094 1.7539 5.9219zm29.262 55.992-1.4961 4.3125 5.1016 3.4844c0.29688 0.20312 0.51172 0.5 0.61719 0.83984l2.6406 8.793c0.26172 0.86328 1.1328 1.3945 2.0195 1.2266h0.007812c0.60156-0.11719 1.1289-0.48438 1.4414-1.0117 0.3125-0.52734 0.38281-1.168 0.19531-1.75l-2.9062-8.9648c-0.085937-0.26953-0.24609-0.51172-0.46094-0.69531zm-8.0469-26.883c2.0352 1.082 3.4219 3.2266 3.4219 5.6914v11.715c0 2.6055-1.543 4.8477-3.7656 5.8633l-0.57031 5.3555c-0.019532 0.23437-0.097656 0.45312-0.21875 0.65234l-6.707 10.988c-0.60547 0.98828-0.35156 2.2695 0.57813 2.9531 0 0.003906 0.003906 0.003906 0.003906 0.003906 0.55859 0.41016 1.2656 0.57031 1.9492 0.43359 0.67578-0.13281 1.2695-0.54688 1.6289-1.1406l6.9648-11.453 4.6797-13.461c-0.37891-0.33594-0.69141-0.75781-0.91016-1.2383l-2.3281-5.1133c-0.35547-0.78516-0.007813-1.7148 0.77734-2.0703 0.78516-0.35547 1.7148-0.007813 2.0703 0.77344 0 0 2.3242 5.1172 2.3242 5.1172 0.10547 0.22656 0.33594 0.36719 0.58594 0.35938 0 0 9.3008-0.41797 9.3047-0.41797 0.89844-0.042968 1.5938-0.80078 1.5586-1.6992v-0.003907c-0.035156-0.83203-0.71484-1.4961-1.5469-1.5117l-8.0938-0.16016c-0.58203-0.011718-1.1094-0.34766-1.3711-0.87109 0 0-4.8438-9.7227-4.8438-9.7227-0.30859-0.62109-0.94141-1.0195-1.6367-1.0234zm-6.2617-25.984c-1.9453 3.5742-4.207 7.0078-5.0547 8.2656v6.1328c0 2.4805-2.0117 4.4922-4.4961 4.4922h-9.8164c-0.37891 0-0.74219 0.15625-1.0117 0.42187-0.27344 0.26953-0.42188 0.63672-0.42188 1.0156v0.30078c0 0.38281 0.14844 0.74609 0.42188 1.0156 0.26953 0.26953 0.63281 0.42188 1.0156 0.42188h9.7461c1.2109 0 2.3711 0.48047 3.2266 1.3359 0.85547 0.85547 1.3359 2.0156 1.3359 3.2227v0.30469c0 1.2109-0.48047 2.3672-1.3359 3.2266-0.85547 0.85547-2.0156 1.332-3.2266 1.332h-12.898c-0.37891 0-0.74609 0.15234-1.0156 0.42188-0.26563 0.26953-0.42188 0.63672-0.42188 1.0156v3.4492c0 0.38281 0.15625 0.75 0.42188 1.0156 0.26953 0.26953 0.63672 0.42187 1.0156 0.42187h8.9336c1.4258 0 2.793 0.56641 3.8008 1.5781 1.0117 1.0078 1.5781 2.375 1.5781 3.8008v1.8125c0 1.4297-0.56641 2.7969-1.5781 3.8086-1.0078 1.0078-2.375 1.5742-3.8008 1.5742h-5.0273l-5.8477 5.3633c-0.28906 0.26563-0.66797 0.40625-1.0586 0.40625h-11.031v2.1406c0 0.85937 0.69922 1.5625 1.5625 1.5625h33.645l3.6211-5.9258 0.43359-4.0938h-1.2031c-3.5586 0-6.4492-2.8867-6.4492-6.4492v-11.715c0-3.5586 2.8906-6.4453 6.4492-6.4453h1.0664c0.16016-0.51953 0.44922-1 0.84375-1.3906 0.09375-0.097656 0.19531-0.18359 0.30078-0.26953-1.6133-1.5664-2.6211-3.7578-2.6211-6.1836 0-4.7539 3.8594-8.6094 8.6133-8.6094 0.33594 0 0.67188 0.019532 1 0.054688v-7.2695c0-0.86719-0.69922-1.5625-1.5625-1.5625zm-30.25 44.609h4.1289l4.5938 4.2148-4.5938 4.207h-4.1289zm-3.125 0h-17.359c-0.85937 0-1.5625 0.70312-1.5625 1.5625v5.2969c0 0.86719 0.70313 1.5625 1.5625 1.5625h17.359zm20.008-44.609h-7.4336v7.4375c0 2.5859-2.1016 4.6875-4.6875 4.6875h-3.1836v4.418c0 0.58203-0.32422 1.1133-0.83984 1.3828-0.51562 0.26953-1.1367 0.23047-1.6133-0.097656 0 0-3.0312-2.0938-5.4219-3.7461v27.402h11.031c0.39063 0 0.76953 0.14844 1.0586 0.41406l5.8477 5.3633h5.0273c0.59766 0 1.1719-0.23828 1.5938-0.66016 0.42188-0.42578 0.66016-0.99609 0.66016-1.5938v-1.8164c0-0.59766-0.23828-1.1719-0.66016-1.5938s-0.99609-0.66016-1.5938-0.66016h-8.9336c-1.207 0-2.3711-0.48047-3.2227-1.3359-0.85547-0.85547-1.3398-2.0156-1.3398-3.2266v-3.4492c0-1.207 0.48438-2.3711 1.3398-3.2227 0.85156-0.85938 2.0156-1.3398 3.2227-1.3398h12.898c0.38281 0 0.74609-0.14844 1.0156-0.41797s0.42188-0.63281 0.42188-1.0156v-0.30469c0-0.37891-0.15234-0.74219-0.42188-1.0156-0.26953-0.26563-0.63281-0.41797-1.0156-0.41797h-9.7461c-1.2148 0-2.3711-0.48047-3.2266-1.3359-0.85547-0.85547-1.3359-2.0156-1.3359-3.2266v-0.30078c0-1.207 0.48047-2.3711 1.3359-3.2227 0.85547-0.85547 2.0117-1.3398 3.2266-1.3398h9.8125c0.75391 0 1.3711-0.60938 1.3711-1.3711v-5.9336c-0.71875-1.0586-3.1289-4.6797-5.1875-8.4609zm19.926 31.676v11.715c0 1.8359-1.4883 3.3242-3.3242 3.3242h-1.7227c-1.8359 0-3.3242-1.4883-3.3242-3.3242v-11.715c0-1.832 1.4883-3.3203 3.3242-3.3203h1.7227c1.8359 0 3.3242 1.4883 3.3242 3.3203zm4.7383-19.543c-0.5-0.14844-1.0312-0.23047-1.582-0.23047-3.0273 0-5.4883 2.457-5.4883 5.4844 0 3.0273 2.4609 5.4844 5.4883 5.4844 3.0234 0 5.4844-2.457 5.4844-5.4844 0-2.1523-1.2422-4.0117-3.043-4.9141-0.32422-0.023438-0.62109-0.14453-0.85938-0.33984zm-35.223-22.383v17.688c0 0.85938-0.69922 1.5625-1.5625 1.5625h-4.7461c-0.86328 0-1.5625 0.69531-1.5625 1.5625v3l-6.2109-4.2891c-0.26172-0.17969-0.57031-0.27344-0.89062-0.27344h-11.836c-0.41016 0-0.80859-0.16797-1.1016-0.46094s-0.46094-0.69141-0.46094-1.1016v-17.688c0-0.86328 0.70313-1.5625 1.5625-1.5625h25.246c0.86328 0 1.5625 0.69922 1.5625 1.5625zm17.242-5.6953c3.8086 0 6.9023 3.0938 6.9023 6.8984 0 1.2422-0.73438 3.0703-1.6758 5.0469-1.5742 3.293-3.8242 6.9102-5.2266 9.0625-1.3984-2.1562-3.6523-5.7695-5.2227-9.0625-0.94531-1.9766-1.6758-3.8047-1.6758-5.0469 0-3.8047 3.0898-6.8984 6.8984-6.8984z"/>
<text fill="#000000" font-family="Arbeit Regular, Helvetica, Arial-Unicode, Arial, Sans-serif" font-weight="bold" font-size="5.0" y="117.5" x="0.0">Created by onlyintheworlds</text><text fill="#000000" font-family="Arbeit Regular, Helvetica, Arial-Unicode, Arial, Sans-serif" font-weight="bold" font-size="5.0" y="122.5" x="0.0">from Noun Project</text></svg>