<svg viewBox="-2.9279270270270272 -10 115.4054054054054 107.73" version="1.1" xmlns="http://www.w3.org/2000/svg" style="max-height: 500px" width="115.4054054054054" height="107.73">
 <path fill-rule="evenodd" d="m42.762 42.75c0-1.0078-0.39844-1.9727-1.1133-2.6875-1.4844-1.4805-3.8867-1.4805-5.375 0-1.4805 1.4844-1.4805 3.8906 0 5.375 1.4883 1.4844 3.8906 1.4844 5.375 0 0.71484-0.71094 1.1133-1.6797 1.1133-2.6875zm-10.398 0h-0.003906c0.003906-1.0078-0.39453-1.9727-1.1094-2.6875-1.4844-1.4805-3.8906-1.4805-5.3789 0l-0.03125 0.027344 0.003906 0.003906c-1.457 1.4883-1.4453 3.8711 0.027344 5.3438 0.71094 0.71484 1.6797 1.1172 2.6875 1.1172 1.0078 0 1.9766-0.40234 2.6875-1.1172 0.71484-0.71094 1.1133-1.6797 1.1133-2.6875zm32.664 0c-0.003906-1.8125-1.2852-3.3711-3.0625-3.7227-1.7773-0.35156-3.5586 0.60156-4.25 2.2773-0.69141 1.6719-0.10547 3.6055 1.4023 4.6094 1.5078 1.0078 3.5156 0.80859 4.7969-0.47266 0.71484-0.71484 1.1133-1.6797 1.1133-2.6914zm10.398 0c0-1.8125-1.2812-3.3711-3.0586-3.7227-1.7812-0.35547-3.5586 0.59766-4.2539 2.2734-0.69141 1.6719-0.10547 3.6055 1.4023 4.6133 1.5078 1.0039 3.5156 0.80859 4.7969-0.47266l0.03125-0.027344v-0.003906c0.69531-0.71094 1.082-1.6641 1.082-2.6602zm-21.535 0c0-1.8125-1.2812-3.3711-3.0625-3.7227-1.7773-0.35156-3.5547 0.60156-4.2461 2.2773-0.69531 1.6719-0.10547 3.6055 1.4023 4.6094 1.5078 1.0078 3.5156 0.80859 4.7969-0.47266 0.71094-0.71484 1.1133-1.6797 1.1094-2.6914zm15.164 13.156-1.707 1.3594 1.5469 1.1836c0.45312 0.26953 1.0312 0.16406 1.3672-0.24219 0.33203-0.41016 0.31641-1-0.039063-1.3906l-1.1719-0.91016zm-1.7812 5.2461v-2.375l0.88672 0.67969 0.070313 0.046875c0.99219 0.60938 2.2852 0.38672 3.0117-0.52344 0.73047-0.90625 0.66797-2.2148-0.14063-3.0508-0.027343-0.03125-0.058593-0.054688-0.089843-0.078126l-1.3711-1.0664 0.17969-1.0234c0.058594-0.33984-0.16797-0.66016-0.50781-0.72266-0.33984-0.058593-0.66016 0.16797-0.71875 0.50781l-0.23047 1.3203-4.5 3.5859h-0.003906c-0.45312 0.26562-1.0352 0.15625-1.3633-0.25391-0.33203-0.41016-0.3125-1 0.042968-1.3867l1.543-1.2734h0.003907c0.03125-0.023437 0.058593-0.046874 0.085937-0.074218l2.0391-1.6836v0.003906c0.13672-0.10547 0.22266-0.26172 0.24219-0.43359l0.26953-2.5508v0.003907c0.003906-0.039063 0.007813-0.078126 0.007813-0.11328-0.003907-0.76953 0.29688-1.5078 0.83203-2.0547 0.53125-0.53906 1.2578-0.83984 2.0117-0.83594h3.9648c0.76563 0 1.5 0.30859 2.0352 0.85547 0.54688 0.55469 0.85547 1.3008 0.85547 2.0781v10.418zm-34.543-3.8516-1.75-1.3672-1.0234 0.89062v-0.003907c-0.35156 0.39063-0.37109 0.98047-0.039062 1.3906 0.33203 0.40625 0.91406 0.51172 1.3672 0.24609zm-2.5508-3.5312 0.18359 1.0469-1.2383 1.0781c-0.027344 0.023438-0.050781 0.046875-0.070312 0.074219-0.78906 0.84766-0.82422 2.1484-0.085938 3.043 0.73828 0.89062 2.0273 1.0977 3.0078 0.48047l0.058594-0.039063 0.78125-0.625v2.3281h-9.2461v-10.422c0.007813-0.77344 0.32422-1.5156 0.87891-2.0547 0.55859-0.55859 1.3125-0.875 2.1016-0.87891h3.9688c0.77734 0 1.5234 0.30859 2.0781 0.85547 0.21484 0.21484 0.39844 0.46094 0.53906 0.73047 0.019531 0.089843 0.058593 0.17188 0.11328 0.24609 0.13281 0.33594 0.20312 0.69531 0.20312 1.0586l0.18359 2.6406h0.003906c0.011719 0.17188 0.09375 0.32812 0.22266 0.4375l2.0469 1.6875h0.003906c0.03125 0.035157 0.066407 0.0625 0.10547 0.089844l1.5352 1.2656c0.17187 0.18359 0.26953 0.42188 0.28125 0.67188 0.015624 0.39453-0.18359 0.76172-0.51953 0.96484-0.33594 0.19922-0.75781 0.19922-1.0938 0l-4.5859-3.5859-0.23047-1.3164c-0.058594-0.33984-0.38281-0.56641-0.71875-0.50781-0.33984 0.0625-0.56641 0.38281-0.50781 0.72266zm10.562 0.39844-3.543-0.58984-0.17188 1.1875 1.332 1.1016v-0.003907c0.027344 0.019531 0.050781 0.039063 0.074219 0.0625 0.8125 0.83984 0.86719 2.1562 0.13281 3.0625s-2.0312 1.1211-3.0234 0.5l-0.050781-0.035156-1.4258-1.1133v2.8164h9.793v-3.3203l-2.6602-2.1211c-0.13281-0.097656-0.22266-0.24219-0.25-0.40234l-0.19922-1.1484zm1.7188 0.28516h0.003906c0.14844 0.023437 0.30078-0.007813 0.42578-0.085937l1.2305-0.76563h0.003906c0.035156 0.066407 0.085938 0.12109 0.14062 0.16797l3.6875 3.043h0.003906c0.35547 0.39062 0.375 0.97656 0.042969 1.3867-0.32812 0.41016-0.91016 0.51953-1.3633 0.25391l-4.5-3.5859-0.085938-0.48438 0.41406 0.070313zm-0.76172-4.8242 1.4102-0.87109c-0.20312-0.22266-0.4375-0.41016-0.69922-0.55859-0.45312-0.26172-0.96875-0.39844-1.4883-0.39844h-3.9688c-1.0391 0-2 0.55469-2.5117 1.457 0.17188 0.45703 0.26172 0.9375 0.26172 1.4258l0.16016 2.3008 1.0352 0.85547 0.085937-0.60156c-0.92188-0.52734-1.3633-1.6172-1.0703-2.6367 0.29297-1.0234 1.2422-1.7148 2.3047-1.6758l0.074219 0.007813 4.4102 0.69531zm11.871-2.9805 2.3828 1.5c0.53906-0.69531 1.2891-1.1992 2.1367-1.4375-0.15234-0.12109-0.29688-0.25-0.43359-0.39063-0.94922-0.94531-1.4805-2.2266-1.4805-3.5664s0.53125-2.6211 1.4805-3.5664c0.94531-0.94922 2.2266-1.4805 3.5664-1.4805s2.6211 0.53125 3.5664 1.4805c0.94922 0.94531 1.4805 2.2266 1.4805 3.5664s-0.53125 2.6211-1.4805 3.5664c-0.14453 0.14844-0.29687 0.28125-0.46094 0.41016 0.80469 0.24219 1.5156 0.72266 2.0391 1.3789 0.09375-0.12109 0.19531-0.23828 0.30078-0.34766 0.5-0.50781 1.125-0.87109 1.8125-1.0625-0.14844-0.11719-0.28906-0.24219-0.42578-0.37891-0.94531-0.94531-1.4766-2.2266-1.4766-3.5664s0.53125-2.6211 1.4766-3.5664c0.94922-0.94922 2.2305-1.4805 3.5703-1.4805s2.6211 0.53125 3.5703 1.4805c1.957 1.957 1.9727 5.125 0.03125 7.0977l-0.035156 0.035156 0.003906 0.003907c-0.14844 0.14453-0.30078 0.28125-0.46484 0.40625 0.65625 0.20312 1.25 0.56641 1.7305 1.0547 0.77734 0.78516 1.2148 1.8477 1.2148 2.9492v11.043c0 0.34375-0.27734 0.62109-0.62109 0.62109h-54.109c-0.34375 0-0.62109-0.27734-0.625-0.62109v-11.043c0.007813-1.1094 0.46094-2.168 1.2578-2.9453 0.51562-0.50781 1.1484-0.87891 1.8477-1.0781-1.125-0.89063-1.8164-2.2109-1.9062-3.6406-0.089843-1.4297 0.42969-2.832 1.4336-3.8516l0.03125-0.035156 0.003906-0.003906c0.94531-0.94531 2.2305-1.4766 3.5664-1.4766 1.3398 0 2.6211 0.53125 3.5703 1.4766 0.94531 0.94531 1.4766 2.2305 1.4766 3.5703 0 1.3359-0.53125 2.6211-1.4766 3.5664-0.14062 0.14062-0.28906 0.27734-0.44531 0.39844 0.67187 0.19922 1.2852 0.55859 1.7852 1.0508 0.10156 0.097656 0.19531 0.19922 0.28125 0.30859 0.53906-0.65625 1.2617-1.1328 2.0781-1.3633-0.15234-0.12109-0.29688-0.25-0.43359-0.39063-0.94531-0.94531-1.4805-2.2266-1.4805-3.5664 0-1.3359 0.53516-2.6211 1.4805-3.5664 0.94531-0.94922 2.2305-1.4805 3.5664-1.4805 1.3398 0 2.625 0.53125 3.5703 1.4805 0.94531 0.94531 1.4766 2.2305 1.4766 3.5664 0 1.3398-0.53125 2.6211-1.4766 3.5664-0.14062 0.14453-0.28906 0.27734-0.44922 0.40234 0.33203 0.09375 0.65234 0.22656 0.94922 0.39844 0.44141 0.25391 0.83203 0.58594 1.1562 0.97656l2.293-1.418c0.085938-0.0625 0.19141-0.10547 0.30078-0.11719-0.085938-0.074219-0.17188-0.15234-0.25391-0.23438v-0.003906c-0.94922-0.94531-1.4805-2.2266-1.4805-3.5664 0-1.3398 0.53125-2.6211 1.4805-3.5664 0.94531-0.94922 2.2305-1.4805 3.5664-1.4805 1.3398 0 2.625 0.53125 3.5703 1.4805 0.94531 0.94531 1.4766 2.2266 1.4766 3.5664 0 1.3398-0.53125 2.6211-1.4766 3.5664-0.085937 0.085937-0.17969 0.17188-0.26953 0.25l-0.003906 0.003906c0.066406 0.015625 0.12891 0.039063 0.18359 0.074219zm11.43 5.8281c-0.23047 0.35938-0.55469 0.65234-0.9375 0.83984l0.10156 0.55078 1.082-0.89063 0.24219-2.3008v-0.003906c0-0.44922 0.074219-0.89844 0.21875-1.3242-0.5-0.95312-1.4883-1.5508-2.5625-1.5469h-3.9297c-0.84766 0-1.6523 0.37109-2.1992 1.0156l1.2891 0.80859 4.5898-0.69531h0.070313v0.003906c0.85547-0.03125 1.6602 0.41406 2.0859 1.1562 0.42578 0.74609 0.40625 1.6641-0.050781 2.3867zm-2.1484 1.1211-3.5 0.5625-0.19922 1.1523h-0.003906c-0.023438 0.15234-0.10547 0.28516-0.22656 0.37891l-2.7773 2.207v3.2461l9.8867 0.003907v-2.832l-1.4219 1.1328-0.058594 0.039062c-0.98828 0.62109-2.2852 0.40625-3.0195-0.5-0.73828-0.90625-0.68359-2.2188 0.12891-3.0586l0.054688-0.050782 1.3438-1.1055-0.21094-1.1758zm-5.7461 0.76562-1.1445-0.73438v-0.003906c-0.035157 0.054688-0.082032 0.10156-0.12891 0.14453l-3.7188 3.082c-0.16016 0.17578-0.25391 0.40234-0.26172 0.64063-0.007812 0.25781 0.078126 0.51172 0.24609 0.71094 0.32812 0.41016 0.90625 0.51562 1.3633 0.25l4.5-3.5859 0.089843-0.5-0.48047 0.078124h-0.003906c-0.16016 0.035157-0.32812 0.003907-0.46484-0.085937zm-7.5352-33.941 0.050782 0.050781-0.003906-0.003906c0.125 0.10938 0.28516 0.16797 0.44922 0.16016 0.16406-0.011718 0.32031-0.085937 0.42969-0.20703 4.3516-4.9023 10.445-7.9141 16.98-8.4023 6.5391-0.48438 13.008 1.5977 18.039 5.8008 2.582 2.082 4.793 4.5898 6.5352 7.418 3.0703 5.168 3.8047 11.395 2.0117 17.133-1.6328 5.8867-5.2578 11.781-9.8906 17.352-10.07 12.113-24.859 22.668-34.301 28.332-9.3203-5.6016-23.879-16.09-33.887-28.129-4.6719-5.625-8.3477-11.59-10.016-17.531-1.6484-5.875-1.3203-11.742 1.9688-17.258 1.7148-2.7891 3.8984-5.2617 6.4492-7.3203 5.0586-4.2031 11.555-6.2852 18.113-5.7969 6.5625 0.48438 12.684 3.4961 17.07 8.3984zm4.9766 32.301v-0.003906c-0.14453-0.085938-0.25-0.22656-0.28906-0.39062-0.035156-0.16406-0.007812-0.33594 0.085938-0.47656 0.089844-0.14453 0.23438-0.24219 0.39844-0.27734 0.16406-0.03125 0.33594 0.003906 0.47656 0.097656l2.3555 1.5156 5.7891-0.93359c0.50391-0.15234 0.81641-0.65234 0.73828-1.1758-0.078124-0.51953-0.52344-0.90625-1.0508-0.90625l-4.7891 0.72656h-0.003907c-0.16016 0.023437-0.32812-0.019532-0.46094-0.11719l-4.7344-2.9805h-6.0391l-2.5391 1.5703c-0.042969 0.050781-0.097656 0.09375-0.15625 0.125-0.042969 0.027344-0.09375 0.046875-0.14453 0.058594l-2.0234 1.2539c-0.12891 0.078125-0.28125 0.10938-0.42969 0.082031l-4.5859-0.72266v0.003906c-0.52734-0.007813-0.98047 0.37891-1.0625 0.89844-0.085937 0.52344 0.23047 1.0312 0.73828 1.1875l5.6133 0.92969 2.4453-1.5195c0.29297-0.17578 0.67188-0.085938 0.85156 0.20312 0.18359 0.28906 0.09375 0.67188-0.19141 0.85547l-0.33203 0.20313v0.007812l3.5508 2.9258c0.023438 0.019531 0.046876 0.039063 0.070313 0.0625 0.80859 0.83594 0.87109 2.1406 0.14844 3.0469-0.72656 0.91016-2.0117 1.1406-3.0039 0.53906-0.03125-0.019531-0.0625-0.039063-0.089844-0.0625l-0.78125-0.62109v2.3242h9.7969v-2.2539l-0.69141 0.55078-0.054687 0.039062c-0.72656 0.46094-1.6445 0.47656-2.3906 0.050781-0.74219-0.42969-1.1914-1.2305-1.1602-2.0898 0.019532-0.54297 0.23438-1.0625 0.60547-1.457 0.023438-0.027344 0.050781-0.054688 0.078125-0.082032l3.5547-2.9492 0.007812-0.046876z"/>
<text fill="#000000" font-family="Arbeit Regular, Helvetica, Arial-Unicode, Arial, Sans-serif" font-weight="bold" font-size="5.0" y="117.5" x="0.0">Created by KR</text><text fill="#000000" font-family="Arbeit Regular, Helvetica, Arial-Unicode, Arial, Sans-serif" font-weight="bold" font-size="5.0" y="122.5" x="0.0">from Noun Project</text></svg>