<svg xml:space="preserve" viewBox="0 0 54.25 52.625" y="0px" x="0px" version="1.1" xmlns:xlink="http://www.w3.org/1999/xlink" xmlns="http://www.w3.org/2000/svg" style="max-height: 500px" width="54.25" height="52.625"><g><circle r="3.9987" cy="5.8136" cx="11.2052"/><path d="M42.4917,12.3209c-0.3359-0.1375-0.6858-0.1687-1.0213-0.124h-5.4762   c-0.3353-0.0447-0.6853-0.0135-1.0215,0.124c-4.0333,1.658-5.5783,8.4454-6.1661,12.9031c-0.0977,0.1468-0.1725,0.31-0.1849,0.4987   c-0.0956,1.4636-0.735,4.6678-2.1003,5.229c-0.0384,0.0157-0.0719,0.0377-0.1074,0.0573h-2.1163   c-0.0354-0.0196-0.069-0.0416-0.1074-0.0573c-1.3592-0.5586-2.0022-3.7649-2.1012-5.23c-0.0284-0.4279-0.3163-0.7762-0.6954-0.9108   c-1.044-18.7681-20.009-17.8126-20.3934,0.376c-0.0225,1.1041,0.8532,2.0179,1.9574,2.0413   c0.0137,0.0005,0.0283,0.0005,0.043,0.0005c1.0846,0,1.9749-0.8674,1.9984-1.9569c0.0015-0.0675,0.1951-5.0037,2.4491-7.9863   L4.5198,33.4139h1.8431v12.7719c0,1.1041,0.8952,1.9993,1.9993,1.9993s1.9993-0.8952,1.9993-1.9993V33.4139h1.6869v12.7719   c0,1.1041,0.8952,1.9993,1.9993,1.9993s1.9993-0.8952,1.9993-1.9993V33.4139h1.8432l-2.9353-16.167   c2.2826,2.9689,2.454,7.9234,2.4569,8.0272c0.0234,1.0885,0.9138,1.9544,1.9974,1.9544c0.0146,0,0.0293,0,0.043-0.0005   c0.2496-0.0053,0.4848-0.0616,0.7033-0.1497c0.2502,1.5901,0.9085,4.2448,2.5978,5.4331v6.8252h0.0001v7.8074   c0,0.5749,0.4661,1.041,1.041,1.041c0.5749,0,1.041-0.4661,1.041-1.041v-7.8074h1.041v7.8074c0,0.5749,0.4661,1.041,1.0409,1.041   c0.5749,0,1.041-0.4661,1.041-1.041v-8.8482l-0.0001-0.0009v-5.7834c0.6422-0.4518,1.1315-1.119,1.5104-1.8566   c0.2661,0.1542,0.567,0.2564,0.8952,0.273c0.0342,0.0015,0.0683,0.0024,0.1025,0.0024c1.0582,0,1.9408-0.8303,1.9945-1.8993   c0.1226-2.4409,0.5718-5.4777,1.2734-8.0143v6.1708c0,0.0015-0.0004,0.0027-0.0004,0.0042v18.9938   c0,1.1041,0.8952,1.9993,1.9993,1.9993c1.1041,0,1.9993-0.8952,1.9993-1.9993V30.191h1.9993v15.9948   c0,1.1041,0.8952,1.9993,1.9993,1.9993s1.9993-0.8952,1.9993-1.9993V30.191h0.0004v-9.2213   c0.712,2.5826,1.1514,5.6725,1.2736,8.0625c0.0537,1.068,0.9372,1.8978,1.9945,1.8978c0.0342,0,0.0683-0.001,0.1035-0.0024   c1.1022-0.0561,1.9505-0.9943,1.8949-2.097C48.8793,26.4715,48.0085,14.5887,42.4917,12.3209z"/><circle r="3.9987" cy="5.8136" cx="38.7326"/><circle r="2.0819" cy="27.9158" cx="25.3559"/></g><text font-family="'Helvetica Neue', Helvetica, Arial-Unicode, Arial, Sans-serif" font-weight="bold" font-size="5px" fill="#000000" y="65" x="0">Created by ProSymbols</text><text font-family="'Helvetica Neue', Helvetica, Arial-Unicode, Arial, Sans-serif" font-weight="bold" font-size="5px" fill="#000000" y="70" x="0">from the Noun Project</text></svg>